<svg width="435" height="150" viewBox="0 0 435 150" fill="none" xmlns="http://www.w3.org/2000/svg">
<g clip-path="url(#clip0_706_58)">
<path d="M221.171 82.5397L231.311 94.6897C223.551 102.29 213.991 106.08 202.641 106.08C188.951 106.08 177.951 101.87 169.651 93.4297C161.341 84.9997 157.191 74.2697 157.191 61.2497C157.191 48.2297 161.361 37.5697 169.711 29.0097C178.061 20.4597 188.911 16.1797 202.261 16.1797C213.861 16.1797 223.461 19.5597 231.061 26.3197L220.791 39.3397C215.451 34.6697 209.311 32.3297 202.381 32.3297C194.201 32.3297 187.671 35.0397 182.791 40.4697C177.911 45.8997 175.471 52.7797 175.471 61.1297C175.471 69.4797 177.991 76.2397 183.041 81.6597C188.091 87.0897 194.621 89.7997 202.631 89.7997C209.391 89.7997 215.571 87.3797 221.161 82.5397H221.171Z" fill="white"/>
<path d="M256.103 17.8086V104.449H238.703V17.8086H256.103Z" fill="white"/>
<path d="M307.061 68.1386H285.021V104.449H267.621V17.8086H307.691V34.0886H285.031V52.1186H307.071V68.1486L307.061 68.1386Z" fill="white"/>
<path d="M173.471 132.24C173.111 132.42 172.401 132.59 171.491 132.59C169.381 132.59 167.781 131.26 167.781 128.82C167.781 126.38 169.371 124.91 171.701 124.91C172.641 124.91 173.231 125.11 173.481 125.24L173.251 126.02C172.881 125.84 172.361 125.71 171.741 125.71C169.981 125.71 168.811 126.83 168.811 128.78C168.811 130.6 169.871 131.78 171.691 131.78C172.281 131.78 172.881 131.66 173.271 131.47L173.471 132.23V132.24Z" fill="white"/>
<path d="M179.842 129.758C179.842 131.738 178.462 132.598 177.162 132.598C175.702 132.598 174.582 131.538 174.582 129.848C174.582 128.058 175.762 127.008 177.252 127.008C178.742 127.008 179.842 128.128 179.842 129.758ZM175.572 129.818C175.572 130.988 176.252 131.878 177.212 131.878C178.172 131.878 178.852 131.008 178.852 129.798C178.852 128.888 178.392 127.738 177.242 127.738C176.092 127.738 175.582 128.798 175.582 129.818H175.572Z" fill="white"/>
<path d="M181.52 128.798C181.52 128.168 181.51 127.628 181.48 127.128H182.34L182.37 128.178H182.41C182.65 127.458 183.24 127.008 183.9 127.008C184.01 127.008 184.09 127.018 184.18 127.038V127.958C184.08 127.938 183.98 127.928 183.85 127.928C183.16 127.928 182.67 128.448 182.54 129.178C182.52 129.308 182.5 129.468 182.5 129.628V132.478H181.53V128.798H181.52Z" fill="white"/>
<path d="M185.649 128.878C185.649 128.188 185.629 127.638 185.609 127.128H186.489L186.529 128.048H186.549C186.949 127.398 187.589 127.008 188.459 127.008C189.759 127.008 190.739 128.098 190.739 129.728C190.739 131.648 189.559 132.598 188.289 132.598C187.579 132.598 186.949 132.288 186.629 131.758H186.609V134.668H185.639V128.878H185.649ZM186.619 130.308C186.619 130.448 186.639 130.588 186.659 130.708C186.839 131.378 187.429 131.848 188.129 131.848C189.169 131.848 189.769 131.008 189.769 129.778C189.769 128.708 189.199 127.788 188.169 127.788C187.499 127.788 186.879 128.258 186.689 128.988C186.659 129.108 186.619 129.258 186.619 129.388V130.308Z" fill="white"/>
<path d="M197.311 129.758C197.311 131.738 195.931 132.598 194.631 132.598C193.171 132.598 192.051 131.538 192.051 129.848C192.051 128.058 193.231 127.008 194.721 127.008C196.211 127.008 197.311 128.128 197.311 129.758ZM193.041 129.818C193.041 130.988 193.721 131.878 194.681 131.878C195.641 131.878 196.321 131.008 196.321 129.798C196.321 128.888 195.861 127.738 194.711 127.738C193.561 127.738 193.051 128.798 193.051 129.818H193.041Z" fill="white"/>
<path d="M198.993 128.798C198.993 128.168 198.983 127.628 198.953 127.128H199.813L199.843 128.178H199.883C200.123 127.458 200.713 127.008 201.373 127.008C201.483 127.008 201.563 127.018 201.653 127.038V127.958C201.553 127.938 201.453 127.928 201.323 127.928C200.633 127.928 200.143 128.448 200.013 129.178C199.993 129.308 199.973 129.468 199.973 129.628V132.478H199.003V128.798H198.993Z" fill="white"/>
<path d="M206 132.478L205.92 131.808H205.89C205.59 132.228 205.01 132.608 204.24 132.608C203.15 132.608 202.59 131.848 202.59 131.068C202.59 129.778 203.75 129.068 205.83 129.078V128.968C205.83 128.528 205.71 127.728 204.61 127.728C204.11 127.728 203.59 127.878 203.21 128.128L202.99 127.488C203.44 127.198 204.08 127.008 204.76 127.008C206.41 127.008 206.81 128.128 206.81 129.198V131.198C206.81 131.658 206.83 132.118 206.9 132.478H206.01H206ZM205.86 129.748C204.79 129.728 203.58 129.918 203.58 130.948C203.58 131.578 204 131.878 204.5 131.878C205.2 131.878 205.65 131.438 205.8 130.978C205.83 130.878 205.86 130.768 205.86 130.668V129.738V129.748Z" fill="white"/>
<path d="M209.96 125.59V127.13H211.36V127.87H209.96V130.75C209.96 131.41 210.15 131.79 210.69 131.79C210.95 131.79 211.14 131.76 211.26 131.72L211.3 132.45C211.11 132.53 210.81 132.58 210.43 132.58C209.97 132.58 209.61 132.44 209.37 132.17C209.09 131.88 208.99 131.41 208.99 130.78V127.86H208.16V127.12H208.99V125.84L209.95 125.59H209.96Z" fill="white"/>
<path d="M213.391 129.978C213.411 131.288 214.261 131.838 215.241 131.838C215.941 131.838 216.361 131.718 216.731 131.558L216.901 132.258C216.551 132.408 215.961 132.588 215.111 132.588C213.451 132.588 212.461 131.508 212.461 129.888C212.461 128.268 213.421 127.008 214.991 127.008C216.751 127.008 217.221 128.548 217.221 129.528C217.221 129.728 217.201 129.878 217.191 129.978H213.411H213.391ZM216.261 129.278C216.271 128.658 216.001 127.698 214.901 127.698C213.911 127.698 213.481 128.608 213.401 129.278H216.261Z" fill="white"/>
<path d="M222.673 125.027V132.477H221.703V125.027H222.673Z" fill="white"/>
<path d="M224.892 128.58C224.892 128.03 224.882 127.57 224.852 127.13H225.722L225.782 128.01H225.802C226.072 127.5 226.692 127 227.582 127C228.332 127 229.482 127.44 229.482 129.28V132.47H228.502V129.39C228.502 128.53 228.182 127.81 227.252 127.81C226.602 127.81 226.102 128.26 225.942 128.8C225.902 128.92 225.872 129.09 225.872 129.25V132.47H224.892V128.57V128.58Z" fill="white"/>
<path d="M232.64 125.59V127.13H234.04V127.87H232.64V130.75C232.64 131.41 232.83 131.79 233.37 131.79C233.63 131.79 233.82 131.76 233.94 131.72L233.98 132.45C233.79 132.53 233.49 132.58 233.11 132.58C232.65 132.58 232.29 132.44 232.05 132.17C231.77 131.88 231.67 131.41 231.67 130.78V127.86H230.84V127.12H231.67V125.84L232.63 125.59H232.64Z" fill="white"/>
<path d="M236.071 129.978C236.091 131.288 236.941 131.838 237.921 131.838C238.621 131.838 239.041 131.718 239.411 131.558L239.581 132.258C239.241 132.408 238.641 132.588 237.791 132.588C236.131 132.588 235.141 131.508 235.141 129.888C235.141 128.268 236.101 127.008 237.671 127.008C239.431 127.008 239.901 128.548 239.901 129.528C239.901 129.728 239.881 129.878 239.871 129.978H236.091H236.071ZM238.941 129.278C238.951 128.658 238.681 127.698 237.581 127.698C236.591 127.698 236.161 128.608 236.081 129.278H238.941Z" fill="white"/>
<path d="M241.552 128.798C241.552 128.168 241.542 127.628 241.512 127.128H242.372L242.402 128.178H242.442C242.682 127.458 243.272 127.008 243.932 127.008C244.042 127.008 244.122 127.018 244.212 127.038V127.958C244.112 127.938 244.012 127.928 243.882 127.928C243.192 127.928 242.702 128.448 242.572 129.178C242.552 129.308 242.532 129.468 242.532 129.628V132.478H241.562V128.798H241.552Z" fill="white"/>
<path d="M245.681 128.58C245.681 128.03 245.671 127.57 245.641 127.13H246.511L246.571 128.01H246.591C246.861 127.5 247.481 127 248.371 127C249.121 127 250.271 127.44 250.271 129.28V132.47H249.291V129.39C249.291 128.53 248.971 127.81 248.041 127.81C247.391 127.81 246.891 128.26 246.731 128.8C246.691 128.92 246.661 129.09 246.661 129.25V132.47H245.681V128.57V128.58Z" fill="white"/>
<path d="M255.281 132.478L255.201 131.808H255.171C254.871 132.228 254.291 132.608 253.521 132.608C252.431 132.608 251.871 131.848 251.871 131.068C251.871 129.778 253.031 129.068 255.111 129.078V128.968C255.111 128.528 254.991 127.728 253.891 127.728C253.391 127.728 252.871 127.878 252.491 128.128L252.271 127.488C252.721 127.198 253.361 127.008 254.041 127.008C255.691 127.008 256.091 128.128 256.091 129.198V131.198C256.091 131.658 256.111 132.118 256.181 132.478H255.291H255.281ZM255.141 129.748C254.071 129.728 252.861 129.918 252.861 130.948C252.861 131.578 253.281 131.878 253.781 131.878C254.481 131.878 254.931 131.438 255.081 130.978C255.111 130.878 255.141 130.768 255.141 130.668V129.738V129.748Z" fill="white"/>
<path d="M259.24 125.59V127.13H260.64V127.87H259.24V130.75C259.24 131.41 259.43 131.79 259.97 131.79C260.23 131.79 260.42 131.76 260.54 131.72L260.58 132.45C260.39 132.53 260.09 132.58 259.71 132.58C259.25 132.58 258.89 132.44 258.65 132.17C258.37 131.88 258.27 131.41 258.27 130.78V127.86H257.43V127.12H258.27V125.84L259.23 125.59H259.24Z" fill="white"/>
<path d="M263.28 125.63C263.29 125.96 263.05 126.23 262.66 126.23C262.31 126.23 262.07 125.96 262.07 125.63C262.07 125.3 262.33 125.02 262.68 125.02C263.03 125.02 263.28 125.29 263.28 125.63ZM262.19 132.48V127.13H263.17V132.48H262.19Z" fill="white"/>
<path d="M270.119 129.758C270.119 131.738 268.739 132.598 267.439 132.598C265.979 132.598 264.859 131.538 264.859 129.848C264.859 128.058 266.039 127.008 267.529 127.008C269.019 127.008 270.119 128.128 270.119 129.758ZM265.849 129.818C265.849 130.988 266.529 131.878 267.489 131.878C268.449 131.878 269.129 131.008 269.129 129.798C269.129 128.888 268.669 127.738 267.519 127.738C266.369 127.738 265.859 128.798 265.859 129.818H265.849Z" fill="white"/>
<path d="M271.802 128.58C271.802 128.03 271.792 127.57 271.762 127.13H272.632L272.692 128.01H272.712C272.982 127.5 273.602 127 274.492 127C275.242 127 276.392 127.44 276.392 129.28V132.47H275.412V129.39C275.412 128.53 275.092 127.81 274.162 127.81C273.512 127.81 273.012 128.26 272.852 128.8C272.812 128.92 272.782 129.09 272.782 129.25V132.47H271.802V128.57V128.58Z" fill="white"/>
<path d="M281.41 132.478L281.33 131.808H281.3C281 132.228 280.42 132.608 279.65 132.608C278.56 132.608 278 131.848 278 131.068C278 129.778 279.16 129.068 281.24 129.078V128.968C281.24 128.528 281.12 127.728 280.02 127.728C279.52 127.728 279 127.878 278.62 128.128L278.4 127.488C278.85 127.198 279.49 127.008 280.17 127.008C281.82 127.008 282.22 128.128 282.22 129.198V131.198C282.22 131.658 282.24 132.118 282.31 132.478H281.42H281.41ZM281.27 129.748C280.2 129.728 278.99 129.918 278.99 130.948C278.99 131.578 279.41 131.878 279.91 131.878C280.61 131.878 281.06 131.438 281.21 130.978C281.24 130.878 281.27 130.768 281.27 130.668V129.738V129.748Z" fill="white"/>
<path d="M284.23 124.629H285.21V132.479H284.23V124.629Z" fill="white"/>
<path d="M290.141 125.027H294.181V125.837H291.111V128.317H293.951V129.117H291.111V132.487H290.141V125.037V125.027Z" fill="white"/>
<path d="M296.772 125.63C296.782 125.96 296.542 126.23 296.152 126.23C295.802 126.23 295.562 125.96 295.562 125.63C295.562 125.3 295.823 125.02 296.173 125.02C296.523 125.02 296.772 125.29 296.772 125.63ZM295.682 132.48V127.13H296.663V132.48H295.682Z" fill="white"/>
<path d="M298.731 128.58C298.731 128.03 298.721 127.57 298.691 127.13H299.561L299.621 128.01H299.641C299.911 127.5 300.531 127 301.421 127C302.171 127 303.321 127.44 303.321 129.28V132.47H302.341V129.39C302.341 128.53 302.021 127.81 301.091 127.81C300.441 127.81 299.941 128.26 299.781 128.8C299.741 128.92 299.711 129.09 299.711 129.25V132.47H298.731V128.57V128.58Z" fill="white"/>
<path d="M308.34 132.478L308.26 131.808H308.23C307.93 132.228 307.35 132.608 306.58 132.608C305.49 132.608 304.93 131.848 304.93 131.068C304.93 129.778 306.09 129.068 308.17 129.078V128.968C308.17 128.528 308.05 127.728 306.95 127.728C306.45 127.728 305.93 127.878 305.55 128.128L305.33 127.488C305.78 127.198 306.42 127.008 307.1 127.008C308.75 127.008 309.15 128.128 309.15 129.198V131.198C309.15 131.658 309.17 132.118 309.24 132.478H308.35H308.34ZM308.2 129.748C307.13 129.728 305.92 129.918 305.92 130.948C305.92 131.578 306.34 131.878 306.84 131.878C307.54 131.878 307.99 131.438 308.14 130.978C308.17 130.878 308.2 130.768 308.2 130.668V129.738V129.748Z" fill="white"/>
<path d="M311.173 128.58C311.173 128.03 311.163 127.57 311.133 127.13H312.003L312.063 128.01H312.083C312.353 127.5 312.973 127 313.863 127C314.613 127 315.763 127.44 315.763 129.28V132.47H314.783V129.39C314.783 128.53 314.463 127.81 313.533 127.81C312.883 127.81 312.383 128.26 312.223 128.8C312.183 128.92 312.153 129.09 312.153 129.25V132.47H311.173V128.57V128.58Z" fill="white"/>
<path d="M321.632 132.28C321.372 132.41 320.812 132.59 320.082 132.59C318.452 132.59 317.402 131.5 317.402 129.86C317.402 128.22 318.542 127.02 320.292 127.02C320.872 127.02 321.382 127.16 321.652 127.3L321.432 128.05C321.202 127.92 320.832 127.8 320.292 127.8C319.052 127.8 318.392 128.71 318.392 129.82C318.392 131.06 319.192 131.82 320.262 131.82C320.822 131.82 321.182 131.68 321.462 131.55L321.632 132.28Z" fill="white"/>
<path d="M324.312 125.63C324.322 125.96 324.082 126.23 323.692 126.23C323.342 126.23 323.102 125.96 323.102 125.63C323.102 125.3 323.362 125.02 323.712 125.02C324.062 125.02 324.312 125.29 324.312 125.63ZM323.222 132.48V127.13H324.202V132.48H323.222Z" fill="white"/>
<path d="M329.25 132.478L329.17 131.808H329.14C328.84 132.228 328.26 132.608 327.49 132.608C326.4 132.608 325.84 131.848 325.84 131.068C325.84 129.778 327 129.068 329.08 129.078V128.968C329.08 128.528 328.96 127.728 327.86 127.728C327.36 127.728 326.84 127.878 326.46 128.128L326.24 127.488C326.69 127.198 327.33 127.008 328.01 127.008C329.66 127.008 330.06 128.128 330.06 129.198V131.198C330.06 131.658 330.08 132.118 330.15 132.478H329.26H329.25ZM329.11 129.748C328.04 129.728 326.83 129.918 326.83 130.948C326.83 131.578 327.25 131.878 327.75 131.878C328.45 131.878 328.9 131.438 329.05 130.978C329.08 130.878 329.11 130.768 329.11 130.668V129.738V129.748Z" fill="white"/>
<path d="M332.082 124.629H333.062V132.479H332.082V124.629Z" fill="white"/>
<path d="M337.851 131.308C338.281 131.578 338.921 131.798 339.591 131.798C340.581 131.798 341.161 131.278 341.161 130.528C341.161 129.828 340.761 129.438 339.751 129.048C338.531 128.618 337.771 127.988 337.771 126.938C337.771 125.778 338.741 124.918 340.201 124.918C340.971 124.918 341.521 125.098 341.861 125.278L341.591 126.058C341.351 125.928 340.841 125.708 340.171 125.708C339.151 125.708 338.761 126.318 338.761 126.828C338.761 127.528 339.221 127.868 340.251 128.268C341.521 128.758 342.161 129.358 342.161 130.458C342.161 131.608 341.301 132.598 339.531 132.598C338.811 132.598 338.021 132.388 337.621 132.118L337.861 131.308H337.851Z" fill="white"/>
<path d="M344.5 129.978C344.52 131.288 345.37 131.838 346.35 131.838C347.05 131.838 347.47 131.718 347.84 131.558L348.01 132.258C347.66 132.408 347.07 132.588 346.22 132.588C344.56 132.588 343.57 131.508 343.57 129.888C343.57 128.268 344.53 127.008 346.1 127.008C347.86 127.008 348.33 128.548 348.33 129.528C348.33 129.728 348.31 129.878 348.3 129.978H344.52H344.5ZM347.37 129.278C347.38 128.658 347.11 127.698 346.01 127.698C345.02 127.698 344.59 128.608 344.51 129.278H347.37Z" fill="white"/>
<path d="M349.981 128.798C349.981 128.168 349.971 127.628 349.941 127.128H350.801L350.831 128.178H350.871C351.111 127.458 351.701 127.008 352.361 127.008C352.471 127.008 352.551 127.018 352.641 127.038V127.958C352.541 127.938 352.441 127.928 352.311 127.928C351.621 127.928 351.131 128.448 351.001 129.178C350.981 129.308 350.961 129.468 350.961 129.628V132.478H349.991V128.798H349.981Z" fill="white"/>
<path d="M354.722 127.129L355.782 130.139C355.962 130.629 356.102 131.069 356.212 131.509H356.242C356.362 131.069 356.522 130.629 356.702 130.139L357.752 127.129H358.772L356.662 132.479H355.722L353.672 127.129H354.722Z" fill="white"/>
<path d="M361.23 125.63C361.24 125.96 361 126.23 360.61 126.23C360.26 126.23 360.02 125.96 360.02 125.63C360.02 125.3 360.28 125.02 360.63 125.02C360.98 125.02 361.23 125.29 361.23 125.63ZM360.14 132.48V127.13H361.12V132.48H360.14Z" fill="white"/>
<path d="M367.031 132.28C366.771 132.41 366.211 132.59 365.481 132.59C363.851 132.59 362.801 131.5 362.801 129.86C362.801 128.22 363.941 127.02 365.691 127.02C366.271 127.02 366.781 127.16 367.051 127.3L366.831 128.05C366.601 127.92 366.231 127.8 365.691 127.8C364.451 127.8 363.791 128.71 363.791 129.82C363.791 131.06 364.591 131.82 365.661 131.82C366.221 131.82 366.581 131.68 366.861 131.55L367.031 132.28Z" fill="white"/>
<path d="M369.102 129.978C369.122 131.288 369.972 131.838 370.952 131.838C371.652 131.838 372.072 131.718 372.442 131.558L372.612 132.258C372.262 132.408 371.672 132.588 370.822 132.588C369.162 132.588 368.172 131.508 368.172 129.888C368.172 128.268 369.132 127.008 370.702 127.008C372.462 127.008 372.932 128.548 372.932 129.528C372.932 129.728 372.912 129.878 372.902 129.978H369.122H369.102ZM371.972 129.278C371.982 128.658 371.712 127.698 370.612 127.698C369.622 127.698 369.192 128.608 369.112 129.278H371.972Z" fill="white"/>
<path d="M374.441 131.478C374.731 131.668 375.241 131.868 375.731 131.868C376.441 131.868 376.781 131.518 376.781 131.068C376.781 130.608 376.501 130.348 375.781 130.088C374.811 129.748 374.361 129.218 374.361 128.578C374.361 127.718 375.061 127.008 376.221 127.008C376.771 127.008 377.241 127.158 377.541 127.338L377.301 128.048C377.091 127.918 376.701 127.738 376.201 127.738C375.621 127.738 375.301 128.068 375.301 128.468C375.301 128.908 375.621 129.108 376.321 129.378C377.261 129.728 377.731 130.198 377.731 130.988C377.731 131.928 377.001 132.588 375.721 132.588C375.131 132.588 374.581 132.448 374.211 132.228L374.451 131.488L374.441 131.478Z" fill="white"/>
<path d="M382.262 125.027H383.232V131.667H386.442V132.477H382.272V125.027H382.262Z" fill="white"/>
<path d="M389.022 125.63C389.032 125.96 388.792 126.23 388.402 126.23C388.052 126.23 387.812 125.96 387.812 125.63C387.812 125.3 388.073 125.02 388.423 125.02C388.773 125.02 389.022 125.29 389.022 125.63ZM387.932 132.48V127.13H388.913V132.48H387.932Z" fill="white"/>
<path d="M390.981 128.58C390.981 128.03 390.971 127.57 390.941 127.13H391.801L391.841 127.99H391.871C392.171 127.48 392.671 127.01 393.561 127.01C394.291 127.01 394.851 127.45 395.091 128.08H395.111C395.281 127.78 395.491 127.55 395.711 127.38C396.031 127.14 396.391 127 396.901 127C397.611 127 398.671 127.46 398.671 129.32V132.47H397.711V129.44C397.711 128.41 397.331 127.79 396.541 127.79C395.981 127.79 395.551 128.2 395.381 128.67C395.341 128.8 395.301 128.98 395.301 129.16V132.46H394.341V129.26C394.341 128.41 393.961 127.79 393.221 127.79C392.611 127.79 392.161 128.28 392.011 128.76C391.951 128.9 391.931 129.07 391.931 129.24V132.47H390.971V128.57L390.981 128.58Z" fill="white"/>
<path d="M401.8 125.63C401.81 125.96 401.57 126.23 401.18 126.23C400.83 126.23 400.59 125.96 400.59 125.63C400.59 125.3 400.85 125.02 401.2 125.02C401.55 125.02 401.8 125.29 401.8 125.63ZM400.71 132.48V127.13H401.69V132.48H400.71Z" fill="white"/>
<path d="M404.933 125.59V127.13H406.333V127.87H404.933V130.75C404.933 131.41 405.123 131.79 405.663 131.79C405.923 131.79 406.113 131.76 406.233 131.72L406.273 132.45C406.083 132.53 405.783 132.58 405.403 132.58C404.943 132.58 404.583 132.44 404.343 132.17C404.063 131.88 403.963 131.41 403.963 130.78V127.86H403.133V127.12H403.963V125.84L404.923 125.59H404.933Z" fill="white"/>
<path d="M408.36 129.978C408.38 131.288 409.23 131.838 410.21 131.838C410.91 131.838 411.33 131.718 411.7 131.558L411.87 132.258C411.52 132.408 410.93 132.588 410.08 132.588C408.42 132.588 407.43 131.508 407.43 129.888C407.43 128.268 408.39 127.008 409.96 127.008C411.72 127.008 412.19 128.548 412.19 129.528C412.19 129.728 412.17 129.878 412.16 129.978H408.38H408.36ZM411.23 129.278C411.24 128.658 410.97 127.698 409.87 127.698C408.88 127.698 408.45 128.608 408.37 129.278H411.23Z" fill="white"/>
<path d="M418.493 124.629V131.089C418.493 131.569 418.503 132.109 418.533 132.469H417.653L417.613 131.539H417.593C417.293 132.139 416.633 132.589 415.753 132.589C414.453 132.589 413.453 131.499 413.453 129.869C413.443 128.089 414.553 126.999 415.873 126.999C416.693 126.999 417.253 127.389 417.503 127.819H417.523V124.629H418.503H418.493ZM417.513 129.299C417.513 129.179 417.503 129.009 417.473 128.889C417.333 128.269 416.793 127.759 416.063 127.759C415.053 127.759 414.453 128.639 414.453 129.829C414.453 130.909 414.983 131.809 416.043 131.809C416.703 131.809 417.303 131.379 417.483 130.649C417.513 130.519 417.523 130.379 417.523 130.229V129.299H417.513Z" fill="white"/>
<path d="M332.97 39.958C332.97 44.298 335.68 47.598 341.11 49.848C342.03 50.268 343.97 51.058 346.93 52.228C349.89 53.398 352.29 54.398 354.13 55.228C365.23 60.158 370.78 68.208 370.78 79.388C370.78 87.568 368.15 94.098 362.89 98.978C357.63 103.858 350.74 106.298 342.23 106.298C337.8 106.298 333.9 105.738 330.52 104.608C327.14 103.478 324.43 102.018 322.38 100.228C320.33 98.438 318.66 96.268 317.37 93.718C316.07 91.168 315.22 88.628 314.8 86.078C314.38 83.528 314.26 80.838 314.42 77.998H330.95C330.87 81.838 331.72 85.008 333.52 87.518C335.31 90.018 338.22 91.278 342.22 91.278C345.39 91.278 347.96 90.398 349.92 88.648C351.88 86.898 352.86 84.438 352.86 81.258C352.86 76.418 349.77 72.708 343.59 70.118C342.75 69.788 340.52 68.868 336.89 67.368C333.26 65.868 330.48 64.568 328.56 63.488C319.96 58.978 315.66 51.428 315.66 40.828C315.66 33.648 318.08 27.788 322.92 23.238C327.76 18.688 334.19 16.418 342.2 16.418C351.38 16.418 358.06 18.818 362.23 23.618C366.4 28.418 368.32 34.658 367.99 42.338H351.96C351.96 39.078 351.1 36.438 349.39 34.388C347.68 32.348 345.28 31.318 342.19 31.318C339.27 31.318 336.99 32.128 335.37 33.758C333.74 35.388 332.93 37.448 332.93 39.958H332.97Z" fill="white"/>
<path d="M418.861 104.449H379.551V17.8086H396.951V88.1786H418.861V104.459V104.449Z" fill="white"/>
<path d="M118.631 52.3916C114.111 46.9316 108.281 43.4016 101.291 41.8816C100.211 36.0216 97.8107 30.9116 94.1307 26.6816C88.4507 20.1616 79.4107 16.8516 67.2607 16.8516C56.6607 16.8516 47.9907 19.9416 41.5007 26.0416C38.0407 29.3016 35.4707 33.1016 33.8407 37.3616C32.0207 37.8316 30.1807 38.4716 28.3507 39.2516C24.8007 40.7816 21.6807 42.8816 19.0807 45.5016C16.4607 48.1216 14.2307 51.6916 12.4407 56.1116C10.6807 60.4616 9.61066 65.5816 9.24066 71.3416C8.54066 82.5416 11.2507 91.9716 17.3007 99.3716C20.9907 103.892 25.6407 107.202 31.1207 109.252C31.7607 111.832 32.7307 114.422 34.0307 116.972C35.7807 120.422 38.0807 123.402 40.8507 125.832C43.6407 128.282 47.3407 130.282 51.8607 131.782C56.3107 133.262 61.4907 134.022 67.2507 134.022C78.4707 134.022 87.7107 130.722 94.7207 124.222C98.8907 120.352 101.861 115.652 103.571 110.242C107.661 109.192 111.391 107.392 114.671 104.882C121.541 99.6316 125.411 90.8116 126.171 78.6916C126.841 68.1116 124.301 59.2716 118.621 52.4116L118.631 52.3916ZM38.0207 40.1916C39.3507 36.1816 41.6507 32.6216 44.8607 29.6016C50.4107 24.3916 57.9407 21.7416 67.2607 21.7416C77.9307 21.7416 85.7307 24.4816 90.4307 29.8916C93.1807 33.0616 95.0907 36.8316 96.1307 41.1316C95.9307 41.1116 95.7406 41.1016 95.5406 41.0916C89.8006 40.7316 84.5907 41.3916 80.0207 43.0416C79.5007 42.0116 78.8707 41.0416 78.1307 40.1616C75.5107 37.0416 71.8607 35.4516 67.2607 35.4516C62.9607 35.4516 59.5107 36.7216 57.0107 39.2216C54.5107 41.7216 53.2407 44.9116 53.2407 48.6916C53.2407 54.0216 55.9107 58.3016 61.1807 61.4516C60.3307 63.0316 59.4107 64.8216 58.4307 66.8316C56.1807 71.4316 54.9507 73.9616 54.4707 74.9716C54.1207 75.6816 53.7507 76.3616 53.3707 76.9916C52.6507 76.6316 51.9907 76.2816 51.4107 75.9516L51.3407 75.9116C44.7707 72.4716 40.5007 67.6516 38.2807 61.1916C37.1307 57.8416 36.5507 54.0116 36.5507 49.7916C36.5507 46.3316 37.0407 43.1016 38.0107 40.2016L38.0207 40.1916ZM64.0507 56.5216C63.9107 56.7416 63.7707 56.9616 63.6207 57.1916C59.9407 54.9716 58.1307 52.1716 58.1307 48.6816C58.1307 46.2116 58.8907 44.2416 60.4607 42.6716C62.0307 41.1016 64.2507 40.3416 67.2507 40.3416C70.2507 40.3416 72.7007 41.3116 74.3607 43.2916C74.8207 43.8416 75.2107 44.4316 75.5507 45.0716C70.9507 47.6716 67.0807 51.5116 64.0407 56.5116L64.0507 56.5216ZM35.0107 66.0616C37.8807 72.0716 42.5807 76.8316 49.0507 80.2316C49.4707 80.4616 49.9107 80.7116 50.3907 80.9616C48.0007 83.3716 45.3107 84.4616 42.2207 84.2616C38.9707 84.0616 36.6107 82.9716 35.0207 80.9416C33.3607 78.8316 32.6507 76.1716 32.8607 72.8116C33.0407 69.9316 33.7507 67.7016 35.0107 66.0616ZM99.2707 107.532C97.8907 112.642 95.2407 117.042 91.4007 120.612C85.3307 126.242 77.2107 129.102 67.2707 129.102C62.0307 129.102 57.3807 128.432 53.4307 127.112C49.5407 125.812 46.4007 124.132 44.1007 122.122C41.8007 120.102 39.8807 117.612 38.4207 114.722C37.7607 113.422 37.1907 112.102 36.7207 110.802C38.6807 111.202 40.7307 111.472 42.8607 111.602C43.7507 111.662 44.6307 111.682 45.5007 111.682C48.8907 111.682 52.1107 111.252 55.1207 110.402C57.8607 113.602 61.9307 115.222 67.2707 115.222C71.8307 115.222 75.6207 113.912 78.5207 111.312C81.5007 108.652 83.0107 104.932 83.0107 100.262C83.0107 95.8516 81.2907 92.0516 77.8907 88.9416C78.8007 87.1316 79.8307 85.0116 80.9707 82.5816C82.6307 79.0316 83.7607 76.6916 84.3307 75.6316L84.3707 75.5516C84.9207 74.4416 85.5007 73.4416 86.1107 72.5516C92.2307 76.2416 96.4307 81.0316 98.6107 86.8416C99.8507 90.1416 100.481 93.8716 100.481 97.9116C100.481 101.352 100.081 104.582 99.2906 107.502L99.2707 107.532ZM75.4707 93.4816C77.2407 95.4516 78.1007 97.6916 78.1007 100.282C78.1007 103.542 77.1707 105.962 75.2407 107.682C73.2407 109.472 70.6207 110.342 67.2507 110.342C64.2607 110.342 61.9207 109.732 60.1907 108.482C66.2907 105.512 71.4107 100.482 75.4607 93.4816H75.4707ZM102.721 77.2016C102.611 78.9116 102.231 80.3616 101.561 81.5716C98.9207 76.6016 94.9207 72.3716 89.5907 68.9716C91.2007 67.9116 92.9807 67.4416 94.9607 67.5716C97.4307 67.7316 99.3407 68.6116 100.811 70.2716C102.281 71.9416 102.901 74.2016 102.711 77.1916L102.721 77.2016ZM121.291 78.3716C120.621 89.0216 117.391 96.6316 111.701 100.982C109.631 102.572 107.331 103.812 104.861 104.712C105.191 102.552 105.361 100.292 105.361 97.9516C105.361 93.9516 104.811 90.2016 103.731 86.7816C106.061 84.4516 107.371 81.3516 107.611 77.5216C107.881 73.2316 106.831 69.7016 104.501 67.0516C102.161 64.4016 99.0607 62.9416 95.2807 62.7016C90.7507 62.4116 86.8307 64.1316 83.6207 67.7916C82.2907 69.3116 81.0607 71.1916 79.9807 73.3916C79.3607 74.5616 78.2207 76.9016 76.5207 80.5416C75.0207 83.7416 73.7107 86.4116 72.6307 88.4716L72.2507 89.1916C67.9507 97.4416 62.2207 102.862 55.2307 105.272C51.6107 106.522 47.5507 107.012 43.1507 106.742C39.8407 106.532 36.7507 105.972 33.9707 105.062C28.8107 103.372 24.4807 100.412 21.0907 96.2716C15.8507 89.8616 13.5007 81.5816 14.1307 71.6516C14.4607 66.4216 15.4207 61.8116 16.9807 57.9616C18.5207 54.1516 20.3907 51.1316 22.5507 48.9716C24.7107 46.7916 27.3107 45.0416 30.2907 43.7616C30.9507 43.4716 31.6107 43.2116 32.2707 42.9816C31.8707 45.1616 31.6607 47.4416 31.6607 49.8116C31.6607 53.8616 32.1507 57.6316 33.1107 61.0416C30.0207 63.5816 28.2907 67.4416 27.9607 72.5416C27.6807 77.0916 28.7507 80.9516 31.1607 84.0116C33.6307 87.1516 37.2507 88.8916 41.9107 89.1916C47.5907 89.5416 52.4107 86.9916 56.2507 81.6016C57.1807 80.3016 58.0607 78.8016 58.8807 77.1516L58.9007 77.1116C59.3607 76.1416 60.5907 73.6216 62.8407 69.0116C64.2707 66.1016 65.5507 63.6416 66.6607 61.7116C67.1907 60.7816 67.7007 59.9416 68.1807 59.2016L68.2207 59.1416C71.2007 54.2216 75.0707 50.6416 79.7107 48.5016C84.0707 46.4816 89.2907 45.6516 95.2307 46.0216C96.4407 46.0916 97.6207 46.2316 98.7407 46.4216C105.401 47.5316 110.671 50.5216 114.851 55.5616C119.701 61.4316 121.871 69.1216 121.281 78.4116L121.291 78.3716Z" fill="white"/>
</g>
<defs>
<clipPath id="clip0_706_58">
<rect width="435" height="150" fill="white"/>
</clipPath>
</defs>
</svg>
