<?xml version="1.0" encoding="UTF-8"?>
<svg id="Layer_1" data-name="Layer 1" xmlns="http://www.w3.org/2000/svg" viewBox="0 0 500 178.84">
  <defs>
    <style>
      .cls-1 {
        fill: #fff;
      }
    </style>
  </defs>
  <g>
    <path class="cls-1" d="m257.17,96.54l10.14,12.15c-7.76,7.6-17.32,11.39-28.67,11.39-13.69,0-24.69-4.21-32.99-12.65-8.31-8.43-12.46-19.16-12.46-32.18s4.17-23.68,12.52-32.24c8.35-8.55,19.2-12.83,32.55-12.83,11.6,0,21.2,3.38,28.8,10.14l-10.27,13.02c-5.34-4.67-11.48-7.01-18.41-7.01-8.18,0-14.71,2.71-19.59,8.14-4.88,5.43-7.32,12.31-7.32,20.66s2.52,15.11,7.57,20.53c5.05,5.43,11.58,8.14,19.59,8.14,6.76,0,12.94-2.42,18.53-7.26Z"/>
    <path class="cls-1" d="m292.1,31.81v86.64h-17.4V31.81h17.4Z"/>
    <path class="cls-1" d="m343.06,82.14h-22.04v36.31h-17.4V31.81h40.07v16.28h-22.66v18.03h22.04v16.03Z"/>
    <g>
      <g>
        <path class="cls-1" d="m209.47,146.24c-.36.18-1.07.35-1.98.35-2.11,0-3.71-1.33-3.71-3.77s1.59-3.91,3.92-3.91c.94,0,1.53.2,1.78.33l-.23.78c-.37-.18-.89-.31-1.51-.31-1.76,0-2.93,1.12-2.93,3.07,0,1.82,1.06,3,2.88,3,.59,0,1.19-.12,1.58-.31l.2.76Z"/>
        <path class="cls-1" d="m215.84,143.76c0,1.98-1.38,2.84-2.68,2.84-1.46,0-2.58-1.06-2.58-2.75,0-1.79,1.18-2.84,2.67-2.84s2.59,1.12,2.59,2.75Zm-4.27.06c0,1.17.68,2.06,1.64,2.06s1.64-.87,1.64-2.08c0-.91-.46-2.06-1.61-2.06s-1.66,1.06-1.66,2.08Z"/>
        <path class="cls-1" d="m217.52,142.8c0-.63-.01-1.17-.04-1.67h.86l.03,1.05h.04c.24-.72.83-1.17,1.49-1.17.11,0,.19.01.28.03v.92c-.1-.02-.2-.03-.33-.03-.69,0-1.18.52-1.31,1.25-.02.13-.04.29-.04.45v2.85h-.97v-3.68Z"/>
        <path class="cls-1" d="m221.65,142.88c0-.69-.02-1.24-.04-1.75h.88l.04.92h.02c.4-.65,1.04-1.04,1.91-1.04,1.3,0,2.28,1.09,2.28,2.72,0,1.92-1.18,2.87-2.45,2.87-.71,0-1.34-.31-1.66-.84h-.02v2.91h-.97v-5.79Zm.97,1.43c0,.14.02.28.04.4.18.67.77,1.14,1.47,1.14,1.04,0,1.64-.84,1.64-2.07,0-1.07-.57-1.99-1.6-1.99-.67,0-1.29.47-1.48,1.2-.03.12-.07.27-.07.4v.92Z"/>
        <path class="cls-1" d="m233.31,143.76c0,1.98-1.38,2.84-2.68,2.84-1.46,0-2.58-1.06-2.58-2.75,0-1.79,1.18-2.84,2.67-2.84s2.59,1.12,2.59,2.75Zm-4.27.06c0,1.17.68,2.06,1.64,2.06s1.64-.87,1.64-2.08c0-.91-.46-2.06-1.61-2.06s-1.66,1.06-1.66,2.08Z"/>
        <path class="cls-1" d="m234.99,142.8c0-.63-.01-1.17-.04-1.67h.86l.03,1.05h.04c.24-.72.83-1.17,1.49-1.17.11,0,.19.01.28.03v.92c-.1-.02-.2-.03-.33-.03-.69,0-1.18.52-1.31,1.25-.02.13-.04.29-.04.45v2.85h-.97v-3.68Z"/>
        <path class="cls-1" d="m242,146.48l-.08-.67h-.03c-.3.42-.88.8-1.65.8-1.09,0-1.65-.76-1.65-1.54,0-1.29,1.16-2,3.24-1.99v-.11c0-.44-.12-1.24-1.22-1.24-.5,0-1.02.15-1.4.4l-.22-.64c.45-.29,1.09-.48,1.77-.48,1.65,0,2.05,1.12,2.05,2.19v2c0,.46.02.92.09,1.28h-.89Zm-.14-2.73c-1.07-.02-2.28.17-2.28,1.2,0,.63.42.93.92.93.7,0,1.15-.44,1.3-.9.03-.1.06-.21.06-.31v-.93Z"/>
        <path class="cls-1" d="m245.96,139.59v1.54h1.4v.74h-1.4v2.88c0,.66.19,1.04.73,1.04.26,0,.45-.03.57-.07l.04.73c-.19.08-.49.13-.87.13-.46,0-.82-.14-1.06-.41-.28-.29-.38-.76-.38-1.39v-2.92h-.83v-.74h.83v-1.28l.96-.25Z"/>
        <path class="cls-1" d="m249.39,143.98c.02,1.31.87,1.86,1.85,1.86.7,0,1.12-.12,1.49-.28l.17.7c-.35.15-.94.33-1.79.33-1.66,0-2.65-1.08-2.65-2.7s.96-2.88,2.53-2.88c1.76,0,2.23,1.54,2.23,2.52,0,.2-.02.35-.03.45h-3.78Zm2.87-.7c.01-.62-.26-1.58-1.36-1.58-.99,0-1.42.91-1.5,1.58h2.86Z"/>
        <path class="cls-1" d="m258.67,139.03v7.45h-.97v-7.45h.97Z"/>
        <path class="cls-1" d="m260.89,142.58c0-.55-.01-1.01-.04-1.45h.87l.06.88h.02c.27-.51.89-1.01,1.78-1.01.75,0,1.9.44,1.9,2.28v3.19h-.98v-3.08c0-.86-.32-1.58-1.25-1.58-.65,0-1.15.45-1.31.99-.04.12-.07.29-.07.45v3.22h-.98v-3.9Z"/>
        <path class="cls-1" d="m268.64,139.59v1.54h1.4v.74h-1.4v2.88c0,.66.19,1.04.73,1.04.26,0,.45-.03.57-.07l.04.73c-.19.08-.49.13-.87.13-.46,0-.82-.14-1.06-.41-.28-.29-.38-.76-.38-1.39v-2.92h-.83v-.74h.83v-1.28l.96-.25Z"/>
        <path class="cls-1" d="m272.07,143.98c.02,1.31.87,1.86,1.85,1.86.7,0,1.12-.12,1.49-.28l.17.7c-.34.15-.94.33-1.79.33-1.66,0-2.65-1.08-2.65-2.7s.96-2.88,2.53-2.88c1.76,0,2.23,1.54,2.23,2.52,0,.2-.02.35-.03.45h-3.78Zm2.87-.7c.01-.62-.26-1.58-1.36-1.58-.99,0-1.42.91-1.5,1.58h2.86Z"/>
        <path class="cls-1" d="m277.55,142.8c0-.63-.01-1.17-.04-1.67h.86l.03,1.05h.04c.24-.72.83-1.17,1.49-1.17.11,0,.19.01.28.03v.92c-.1-.02-.2-.03-.33-.03-.69,0-1.18.52-1.31,1.25-.02.13-.04.29-.04.45v2.85h-.97v-3.68Z"/>
        <path class="cls-1" d="m281.68,142.58c0-.55-.01-1.01-.04-1.45h.87l.06.88h.02c.27-.51.89-1.01,1.78-1.01.75,0,1.9.44,1.9,2.28v3.19h-.98v-3.08c0-.86-.32-1.58-1.25-1.58-.65,0-1.15.45-1.31.99-.04.12-.07.29-.07.45v3.22h-.98v-3.9Z"/>
        <path class="cls-1" d="m291.28,146.48l-.08-.67h-.03c-.3.42-.88.8-1.65.8-1.09,0-1.65-.76-1.65-1.54,0-1.29,1.16-2,3.24-1.99v-.11c0-.44-.12-1.24-1.22-1.24-.5,0-1.02.15-1.4.4l-.22-.64c.45-.29,1.09-.48,1.77-.48,1.65,0,2.05,1.12,2.05,2.19v2c0,.46.02.92.09,1.28h-.89Zm-.14-2.73c-1.07-.02-2.28.17-2.28,1.2,0,.63.42.93.92.93.7,0,1.15-.44,1.3-.9.03-.1.06-.21.06-.31v-.93Z"/>
        <path class="cls-1" d="m295.24,139.59v1.54h1.4v.74h-1.4v2.88c0,.66.19,1.04.73,1.04.26,0,.45-.03.57-.07l.04.73c-.19.08-.49.13-.87.13-.46,0-.82-.14-1.06-.41-.28-.29-.38-.76-.38-1.39v-2.92h-.84v-.74h.84v-1.28l.96-.25Z"/>
        <path class="cls-1" d="m299.28,139.63c.01.33-.23.6-.62.6-.35,0-.59-.27-.59-.6s.26-.61.61-.61.6.27.6.61Zm-1.09,6.85v-5.35h.98v5.35h-.98Z"/>
        <path class="cls-1" d="m306.12,143.76c0,1.98-1.38,2.84-2.68,2.84-1.46,0-2.58-1.06-2.58-2.75,0-1.79,1.18-2.84,2.67-2.84s2.59,1.12,2.59,2.75Zm-4.27.06c0,1.17.68,2.06,1.64,2.06s1.64-.87,1.64-2.08c0-.91-.46-2.06-1.61-2.06s-1.66,1.06-1.66,2.08Z"/>
        <path class="cls-1" d="m307.8,142.58c0-.55-.01-1.01-.04-1.45h.87l.06.88h.02c.27-.51.89-1.01,1.78-1.01.75,0,1.9.44,1.9,2.28v3.19h-.98v-3.08c0-.86-.32-1.58-1.25-1.58-.65,0-1.15.45-1.31.99-.04.12-.07.29-.07.45v3.22h-.98v-3.9Z"/>
        <path class="cls-1" d="m317.41,146.48l-.08-.67h-.03c-.3.42-.88.8-1.65.8-1.09,0-1.65-.76-1.65-1.54,0-1.29,1.16-2,3.24-1.99v-.11c0-.44-.12-1.24-1.22-1.24-.5,0-1.02.15-1.4.4l-.22-.64c.45-.29,1.09-.48,1.77-.48,1.65,0,2.05,1.12,2.05,2.19v2c0,.46.02.92.09,1.28h-.89Zm-.14-2.73c-1.07-.02-2.28.17-2.28,1.2,0,.63.42.93.92.93.7,0,1.15-.44,1.3-.9.03-.1.06-.21.06-.31v-.93Z"/>
        <path class="cls-1" d="m320.23,138.63h.98v7.85h-.98v-7.85Z"/>
        <path class="cls-1" d="m326.14,139.03h4.04v.81h-3.07v2.48h2.84v.8h-2.84v3.37h-.97v-7.45Z"/>
        <path class="cls-1" d="m332.77,139.63c.01.33-.23.6-.62.6-.35,0-.59-.27-.59-.6s.26-.61.61-.61.6.27.6.61Zm-1.09,6.85v-5.35h.98v5.35h-.98Z"/>
        <path class="cls-1" d="m334.73,142.58c0-.55-.01-1.01-.04-1.45h.87l.06.88h.02c.27-.51.89-1.01,1.78-1.01.75,0,1.9.44,1.9,2.28v3.19h-.98v-3.08c0-.86-.32-1.58-1.25-1.58-.65,0-1.15.45-1.31.99-.04.12-.07.29-.07.45v3.22h-.98v-3.9Z"/>
        <path class="cls-1" d="m344.34,146.48l-.08-.67h-.03c-.3.42-.88.8-1.65.8-1.09,0-1.65-.76-1.65-1.54,0-1.29,1.16-2,3.24-1.99v-.11c0-.44-.12-1.24-1.22-1.24-.5,0-1.02.15-1.4.4l-.22-.64c.45-.29,1.09-.48,1.77-.48,1.65,0,2.05,1.12,2.05,2.19v2c0,.46.02.92.09,1.28h-.89Zm-.14-2.73c-1.07-.02-2.28.17-2.28,1.2,0,.63.42.93.92.93.7,0,1.15-.44,1.3-.9.03-.1.06-.21.06-.31v-.93Z"/>
        <path class="cls-1" d="m347.17,142.58c0-.55-.01-1.01-.04-1.45h.87l.06.88h.02c.27-.51.89-1.01,1.78-1.01.75,0,1.9.44,1.9,2.28v3.19h-.98v-3.08c0-.86-.32-1.58-1.25-1.58-.65,0-1.15.45-1.31.99-.04.12-.07.29-.07.45v3.22h-.98v-3.9Z"/>
        <path class="cls-1" d="m357.63,146.28c-.26.13-.82.31-1.55.31-1.63,0-2.68-1.09-2.68-2.73s1.14-2.84,2.89-2.84c.58,0,1.09.14,1.36.28l-.22.75c-.23-.13-.6-.25-1.14-.25-1.24,0-1.9.91-1.9,2.02,0,1.24.8,2,1.87,2,.56,0,.92-.14,1.2-.27l.17.73Z"/>
        <path class="cls-1" d="m360.31,139.63c.01.33-.23.6-.62.6-.35,0-.59-.27-.59-.6s.26-.61.61-.61.6.27.6.61Zm-1.09,6.85v-5.35h.98v5.35h-.98Z"/>
        <path class="cls-1" d="m365.25,146.48l-.08-.67h-.03c-.3.42-.88.8-1.65.8-1.09,0-1.65-.76-1.65-1.54,0-1.29,1.16-2,3.24-1.99v-.11c0-.44-.12-1.24-1.22-1.24-.5,0-1.02.15-1.4.4l-.22-.64c.45-.29,1.09-.48,1.77-.48,1.65,0,2.05,1.12,2.05,2.19v2c0,.46.02.92.09,1.28h-.89Zm-.14-2.73c-1.07-.02-2.28.17-2.28,1.2,0,.63.42.93.92.93.7,0,1.15-.44,1.3-.9.03-.1.06-.21.06-.31v-.93Z"/>
        <path class="cls-1" d="m368.08,138.63h.98v7.85h-.98v-7.85Z"/>
        <path class="cls-1" d="m373.85,145.31c.43.27,1.07.49,1.74.49.99,0,1.57-.52,1.57-1.27,0-.7-.4-1.09-1.41-1.48-1.22-.43-1.98-1.06-1.98-2.11,0-1.16.97-2.02,2.43-2.02.77,0,1.32.18,1.66.36l-.27.78c-.24-.13-.75-.35-1.42-.35-1.02,0-1.41.61-1.41,1.12,0,.7.46,1.04,1.49,1.44,1.27.49,1.91,1.09,1.91,2.19,0,1.15-.86,2.14-2.63,2.14-.72,0-1.51-.21-1.91-.48l.24-.81Z"/>
        <path class="cls-1" d="m380.5,143.98c.02,1.31.87,1.86,1.85,1.86.7,0,1.12-.12,1.49-.28l.17.7c-.35.15-.94.33-1.79.33-1.66,0-2.65-1.08-2.65-2.7s.96-2.88,2.53-2.88c1.76,0,2.23,1.54,2.23,2.52,0,.2-.02.35-.03.45h-3.78Zm2.87-.7c.01-.62-.26-1.58-1.36-1.58-.99,0-1.42.91-1.5,1.58h2.86Z"/>
        <path class="cls-1" d="m385.98,142.8c0-.63-.01-1.17-.04-1.67h.86l.03,1.05h.04c.24-.72.83-1.17,1.49-1.17.11,0,.19.01.28.03v.92c-.1-.02-.2-.03-.33-.03-.69,0-1.18.52-1.31,1.25-.02.13-.04.29-.04.45v2.85h-.97v-3.68Z"/>
        <path class="cls-1" d="m390.72,141.13l1.06,3.01c.18.49.32.93.43,1.37h.03c.12-.44.28-.88.46-1.37l1.05-3.01h1.02l-2.11,5.35h-.94l-2.05-5.35h1.05Z"/>
        <path class="cls-1" d="m397.23,139.63c.01.33-.23.6-.62.6-.35,0-.59-.27-.59-.6s.26-.61.61-.61.6.27.6.61Zm-1.09,6.85v-5.35h.98v5.35h-.98Z"/>
        <path class="cls-1" d="m403.03,146.28c-.26.13-.82.31-1.55.31-1.63,0-2.68-1.09-2.68-2.73s1.14-2.84,2.89-2.84c.58,0,1.09.14,1.36.28l-.22.75c-.23-.13-.6-.25-1.14-.25-1.24,0-1.9.91-1.9,2.02,0,1.24.8,2,1.87,2,.56,0,.92-.14,1.2-.27l.17.73Z"/>
        <path class="cls-1" d="m405.1,143.98c.02,1.31.87,1.86,1.85,1.86.7,0,1.12-.12,1.49-.28l.17.7c-.35.15-.94.33-1.79.33-1.66,0-2.65-1.08-2.65-2.7s.96-2.88,2.53-2.88c1.76,0,2.23,1.54,2.23,2.52,0,.2-.02.35-.03.45h-3.78Zm2.87-.7c.01-.62-.26-1.58-1.36-1.58-.99,0-1.42.91-1.5,1.58h2.86Z"/>
        <path class="cls-1" d="m410.44,145.48c.29.19.8.39,1.29.39.71,0,1.05-.35,1.05-.8,0-.46-.28-.72-1-.98-.97-.34-1.42-.87-1.42-1.51,0-.86.7-1.57,1.86-1.57.55,0,1.02.15,1.32.33l-.24.71c-.21-.13-.6-.31-1.1-.31-.58,0-.9.33-.9.73,0,.44.32.64,1.02.91.94.35,1.41.82,1.41,1.61,0,.94-.73,1.6-2.01,1.6-.59,0-1.14-.14-1.51-.36l.24-.74Z"/>
        <path class="cls-1" d="m418.26,139.03h.97v6.64h3.21v.81h-4.17v-7.45Z"/>
        <path class="cls-1" d="m425.02,139.63c.01.33-.23.6-.62.6-.35,0-.59-.27-.59-.6s.26-.61.61-.61.6.27.6.61Zm-1.09,6.85v-5.35h.98v5.35h-.98Z"/>
        <path class="cls-1" d="m426.98,142.58c0-.55-.01-1.01-.04-1.45h.86l.04.86h.03c.3-.51.8-.98,1.69-.98.73,0,1.29.44,1.53,1.07h.02c.17-.3.38-.53.6-.7.32-.24.68-.38,1.19-.38.71,0,1.77.46,1.77,2.32v3.15h-.96v-3.03c0-1.03-.38-1.65-1.17-1.65-.56,0-.99.41-1.16.88-.04.13-.08.31-.08.49v3.3h-.96v-3.2c0-.85-.38-1.47-1.12-1.47-.61,0-1.06.49-1.21.97-.06.14-.08.31-.08.48v3.23h-.96v-3.9Z"/>
        <path class="cls-1" d="m437.8,139.63c.01.33-.23.6-.62.6-.35,0-.59-.27-.59-.6s.26-.61.61-.61.6.27.6.61Zm-1.09,6.85v-5.35h.98v5.35h-.98Z"/>
        <path class="cls-1" d="m440.93,139.59v1.54h1.4v.74h-1.4v2.88c0,.66.19,1.04.73,1.04.26,0,.45-.03.57-.07l.04.73c-.19.08-.49.13-.87.13-.46,0-.82-.14-1.06-.41-.28-.29-.38-.76-.38-1.39v-2.92h-.83v-.74h.83v-1.28l.96-.25Z"/>
        <path class="cls-1" d="m444.36,143.98c.02,1.31.87,1.86,1.85,1.86.7,0,1.12-.12,1.49-.28l.17.7c-.35.15-.94.33-1.79.33-1.66,0-2.65-1.08-2.65-2.7s.96-2.88,2.53-2.88c1.76,0,2.23,1.54,2.23,2.52,0,.2-.02.35-.03.45h-3.78Zm2.87-.7c.01-.62-.26-1.58-1.36-1.58-.99,0-1.42.91-1.5,1.58h2.86Z"/>
        <path class="cls-1" d="m454.49,138.63v6.46c0,.48.01,1.02.04,1.38h-.88l-.04-.93h-.02c-.3.6-.96,1.05-1.84,1.05-1.3,0-2.3-1.09-2.3-2.72-.01-1.78,1.1-2.87,2.42-2.87.82,0,1.38.39,1.63.82h.02v-3.19h.98Zm-.98,4.67c0-.12-.01-.29-.04-.41-.14-.62-.68-1.13-1.41-1.13-1.01,0-1.61.88-1.61,2.07,0,1.08.53,1.98,1.59,1.98.66,0,1.26-.43,1.44-1.16.03-.13.04-.27.04-.42v-.93Z"/>
      </g>
      <path class="cls-1" d="m368.97,53.96c0,4.34,2.71,7.64,8.14,9.89.92.42,2.86,1.21,5.82,2.38,2.96,1.17,5.36,2.17,7.2,3,11.1,4.93,16.65,12.98,16.65,24.16,0,8.18-2.63,14.71-7.89,19.59-5.26,4.88-12.15,7.32-20.66,7.32-4.43,0-8.33-.56-11.71-1.69-3.38-1.13-6.09-2.59-8.14-4.38-2.05-1.79-3.72-3.96-5.01-6.51-1.3-2.55-2.15-5.09-2.57-7.64-.42-2.55-.54-5.24-.38-8.08h16.53c-.08,3.84.77,7.01,2.57,9.52,1.79,2.5,4.7,3.76,8.7,3.76,3.17,0,5.74-.88,7.7-2.63,1.96-1.75,2.94-4.21,2.94-7.39,0-4.84-3.09-8.55-9.27-11.14-.84-.33-3.07-1.25-6.7-2.75-3.63-1.5-6.41-2.8-8.33-3.88-8.6-4.51-12.9-12.06-12.9-22.66,0-7.18,2.42-13.04,7.26-17.59,4.84-4.55,11.27-6.82,19.28-6.82,9.18,0,15.86,2.4,20.03,7.2,4.17,4.8,6.09,11.04,5.76,18.72h-16.03c0-3.26-.86-5.9-2.57-7.95-1.71-2.04-4.11-3.07-7.2-3.07-2.92,0-5.2.81-6.82,2.44-1.63,1.63-2.44,3.69-2.44,6.2Z"/>
    </g>
    <path class="cls-1" d="m454.86,118.45h-39.31V31.81h17.4v70.37h21.91v16.28Z"/>
  </g>
  <path class="cls-1" d="m154.63,66.39c-4.52-5.46-10.35-8.99-17.34-10.51-1.08-5.86-3.48-10.97-7.16-15.2-5.68-6.52-14.72-9.83-26.87-9.83-10.6,0-19.27,3.09-25.76,9.19-3.46,3.26-6.03,7.06-7.66,11.32-1.82.47-3.66,1.11-5.49,1.89-3.55,1.53-6.67,3.63-9.27,6.25-2.62,2.62-4.85,6.19-6.64,10.61-1.76,4.35-2.83,9.47-3.2,15.23-.7,11.2,2.01,20.63,8.06,28.03,3.69,4.52,8.34,7.83,13.82,9.88.64,2.58,1.61,5.17,2.91,7.72,1.75,3.45,4.05,6.43,6.82,8.86,2.79,2.45,6.49,4.45,11.01,5.95,4.45,1.48,9.63,2.24,15.39,2.24,11.22,0,20.46-3.3,27.47-9.8,4.17-3.87,7.14-8.57,8.85-13.98,4.09-1.05,7.82-2.85,11.1-5.36,6.87-5.25,10.74-14.07,11.5-26.19.67-10.58-1.87-19.42-7.55-26.28Zm-80.61-12.2c1.33-4.01,3.63-7.57,6.84-10.59,5.55-5.21,13.08-7.86,22.4-7.86,10.67,0,18.47,2.74,23.17,8.15,2.75,3.17,4.66,6.94,5.7,11.24-.2-.02-.39-.03-.59-.04-5.74-.36-10.95.3-15.52,1.95-.52-1.03-1.15-2-1.89-2.88-2.62-3.12-6.27-4.71-10.87-4.71-4.3,0-7.75,1.27-10.25,3.77-2.5,2.5-3.77,5.69-3.77,9.47,0,5.33,2.67,9.61,7.94,12.76-.85,1.58-1.77,3.37-2.75,5.38-2.25,4.6-3.48,7.13-3.96,8.14-.35.71-.72,1.39-1.1,2.02-.72-.36-1.38-.71-1.96-1.04l-.07-.04c-6.57-3.44-10.84-8.26-13.06-14.72-1.15-3.35-1.73-7.18-1.73-11.4,0-3.46.49-6.69,1.46-9.59Zm26.03,16.33c-.14.22-.28.44-.43.67-3.68-2.22-5.49-5.02-5.49-8.51,0-2.47.76-4.44,2.33-6.01,1.57-1.57,3.79-2.33,6.79-2.33s5.45.97,7.11,2.95c.46.55.85,1.14,1.19,1.78-4.6,2.6-8.47,6.44-11.51,11.44Zm-29.04,9.54c2.87,6.01,7.57,10.77,14.04,14.17.42.23.86.48,1.34.73-2.39,2.41-5.08,3.5-8.17,3.3-3.25-.2-5.61-1.29-7.2-3.32-1.66-2.11-2.37-4.77-2.16-8.13.18-2.88.89-5.11,2.15-6.75Zm64.26,41.47c-1.38,5.11-4.03,9.51-7.87,13.08-6.07,5.63-14.19,8.49-24.13,8.49-5.24,0-9.89-.67-13.84-1.99-3.89-1.3-7.03-2.98-9.33-4.99-2.3-2.02-4.22-4.51-5.68-7.4-.66-1.3-1.23-2.62-1.7-3.92,1.96.4,4.01.67,6.14.8.89.06,1.77.08,2.64.08,3.39,0,6.61-.43,9.62-1.28,2.74,3.2,6.81,4.82,12.15,4.82,4.56,0,8.35-1.31,11.25-3.91,2.98-2.66,4.49-6.38,4.49-11.05,0-4.41-1.72-8.21-5.12-11.32.91-1.81,1.94-3.93,3.08-6.36,1.66-3.55,2.79-5.89,3.36-6.95l.04-.08c.55-1.11,1.13-2.11,1.74-3,6.12,3.69,10.32,8.48,12.5,14.29,1.24,3.3,1.87,7.03,1.87,11.07,0,3.44-.4,6.67-1.19,9.59Zm-23.8-14.05c1.77,1.97,2.63,4.21,2.63,6.8,0,3.26-.93,5.68-2.86,7.4-2,1.79-4.62,2.66-7.99,2.66-2.99,0-5.33-.61-7.06-1.86,6.1-2.97,11.22-8,15.27-15Zm27.25-16.28c-.11,1.71-.49,3.16-1.16,4.37-2.64-4.97-6.64-9.2-11.97-12.6,1.61-1.06,3.39-1.53,5.37-1.4,2.47.16,4.38,1.04,5.85,2.7,1.47,1.67,2.09,3.93,1.9,6.92Zm18.57,1.17c-.67,10.65-3.9,18.26-9.59,22.61-2.07,1.59-4.37,2.83-6.84,3.73.33-2.16.5-4.42.5-6.76,0-4-.55-7.75-1.63-11.17,2.33-2.33,3.64-5.43,3.88-9.26.27-4.29-.78-7.82-3.11-10.47-2.34-2.65-5.44-4.11-9.22-4.35-4.53-.29-8.45,1.43-11.66,5.09-1.33,1.52-2.56,3.4-3.64,5.6-.62,1.17-1.76,3.51-3.46,7.15-1.5,3.2-2.81,5.87-3.89,7.93l-.38.72c-4.3,8.25-10.03,13.67-17.02,16.08-3.62,1.25-7.68,1.74-12.08,1.47-3.31-.21-6.4-.77-9.18-1.68-5.16-1.69-9.49-4.65-12.88-8.79-5.24-6.41-7.59-14.69-6.96-24.62.33-5.23,1.29-9.84,2.85-13.69,1.54-3.81,3.41-6.83,5.57-8.99,2.16-2.18,4.76-3.93,7.74-5.21.66-.29,1.32-.55,1.98-.78-.4,2.18-.61,4.46-.61,6.83,0,4.05.49,7.82,1.45,11.23-3.09,2.54-4.82,6.4-5.15,11.5-.28,4.55.79,8.41,3.2,11.47,2.47,3.14,6.09,4.88,10.75,5.18,5.68.35,10.5-2.2,14.34-7.59.93-1.3,1.81-2.8,2.63-4.45l.02-.04c.46-.97,1.69-3.49,3.94-8.1,1.43-2.91,2.71-5.37,3.82-7.3.53-.93,1.04-1.77,1.52-2.51l.04-.06c2.98-4.92,6.85-8.5,11.49-10.64,4.36-2.02,9.58-2.85,15.52-2.48,1.21.07,2.39.21,3.51.4,6.66,1.11,11.93,4.1,16.11,9.14,4.85,5.87,7.02,13.56,6.43,22.85Z"/>
</svg>