<svg width="2038" height="2038" viewBox="0 0 2038 2038" fill="none" xmlns="http://www.w3.org/2000/svg">
<path d="M1794.71 668.719C1725.93 585.925 1636.77 532.427 1531.05 508.226C1514.49 419.064 1477.55 341.365 1421.5 276.404C1334.89 177.051 1197.32 126.101 1012.63 126.101C850.865 126.101 719.669 173.23 620.316 266.214C568.092 315.89 528.606 373.209 503.131 438.17C475.109 445.812 447.086 454.729 419.064 467.466C365.566 490.394 317.164 522.237 277.677 562.997C238.191 602.484 203.8 657.255 177.051 724.764C150.302 790.999 133.744 868.698 128.649 956.586C118.459 1127.27 159.219 1271.2 250.929 1383.29C306.974 1452.07 378.304 1503.02 461.097 1533.59C471.287 1573.08 485.299 1612.57 505.679 1650.78C532.428 1703 566.819 1748.86 610.126 1785.8C652.16 1822.74 709.479 1853.31 778.261 1876.23C845.77 1899.16 924.742 1910.62 1012.63 1910.62C1183.31 1910.62 1324.7 1860.95 1430.42 1761.6C1494.11 1703 1538.69 1631.67 1565.44 1548.88C1627.85 1532.32 1683.9 1505.57 1734.85 1467.36C1839.29 1387.11 1897.89 1253.37 1909.35 1068.68C1919.54 908.184 1881.33 773.166 1794.71 668.719ZM568.093 482.751C588.473 421.611 622.864 368.114 672.54 320.985C756.608 242.012 871.245 201.253 1013.9 201.253C1176.94 201.253 1295.4 243.286 1366.73 324.806C1408.77 373.209 1438.06 430.528 1453.35 495.489C1450.8 495.489 1446.98 495.489 1444.43 495.489C1356.54 490.394 1277.57 500.584 1208.79 524.785C1201.15 509.5 1190.96 494.215 1179.49 481.477C1140.01 434.349 1083.96 410.147 1013.9 410.147C948.944 410.147 895.446 429.254 857.234 467.466C819.021 505.679 799.915 554.081 799.915 611.4C799.915 692.92 840.675 757.881 920.921 805.01C908.184 829.211 894.172 855.96 878.887 886.53C844.496 956.586 825.39 994.799 819.021 1010.08C813.926 1021.55 807.557 1031.74 802.462 1040.65C790.999 1035.56 782.082 1029.19 773.166 1025.37C673.814 971.871 607.579 899.267 574.461 801.189C556.629 750.239 547.713 691.646 547.713 627.959C547.713 575.735 555.355 526.059 569.366 481.477L568.093 482.751ZM964.229 731.132C964.229 731.132 960.407 737.501 957.86 741.322C901.815 706.931 873.792 664.897 873.792 611.4C873.792 573.188 885.256 543.891 909.457 519.69C933.659 495.489 966.776 484.025 1012.63 484.025C1058.49 484.025 1095.42 499.31 1120.9 528.606C1127.27 537.522 1133.64 546.439 1138.73 555.355C1068.68 594.841 1010.08 653.434 962.955 729.859L964.229 731.132ZM522.237 876.34C565.545 968.05 636.875 1040.65 736.227 1091.6C742.596 1095.42 748.965 1099.25 756.607 1103.07C719.669 1140.01 678.909 1156.56 631.78 1152.74C582.104 1150.2 546.439 1133.64 522.237 1101.79C496.762 1069.95 486.572 1029.19 489.12 978.24C491.667 934.932 503.131 900.541 522.237 875.066V876.34ZM1500.48 1508.12C1480.1 1585.82 1439.34 1653.33 1380.74 1706.82C1287.76 1792.17 1164.21 1835.47 1013.9 1835.47C933.659 1835.47 863.602 1825.28 803.736 1804.9C743.87 1784.52 696.741 1759.05 662.35 1728.48C626.685 1697.91 598.662 1659.7 575.735 1616.39C565.545 1596.01 556.629 1576.9 550.26 1556.52C579.556 1562.89 611.4 1566.71 643.244 1569.26C657.255 1569.26 669.992 1570.53 684.004 1570.53C736.227 1570.53 784.63 1564.16 830.485 1551.43C872.519 1599.83 933.659 1625.3 1015.18 1625.3C1085.23 1625.3 1142.55 1604.92 1185.86 1565.44C1231.72 1524.68 1254.64 1468.63 1254.64 1397.3C1254.64 1329.8 1227.89 1272.48 1176.94 1225.35C1190.96 1197.32 1206.24 1165.48 1224.07 1128.54C1249.55 1075.04 1266.11 1039.38 1275.02 1022.82C1283.94 1004.99 1291.58 989.704 1301.77 975.692C1394.76 1031.74 1458.44 1104.34 1491.56 1193.5C1510.67 1243.18 1519.58 1300.5 1519.58 1361.64C1519.58 1413.86 1513.21 1463.54 1501.75 1508.12H1500.48ZM1138.73 1294.13C1165.48 1323.43 1178.22 1357.82 1178.22 1397.3C1178.22 1446.98 1164.21 1483.92 1134.91 1509.39C1104.34 1536.14 1064.85 1550.15 1013.9 1550.15C968.05 1550.15 932.385 1541.24 906.91 1522.13C999.894 1477.55 1077.59 1399.85 1138.73 1294.13ZM1553.97 1045.75C1552.7 1071.22 1546.33 1094.15 1536.14 1111.98C1496.66 1036.83 1435.52 971.871 1354 919.647C1378.2 903.089 1406.22 896.72 1435.52 897.994C1473.73 900.541 1501.75 913.279 1524.68 938.754C1547.61 964.229 1556.52 998.62 1553.97 1044.47V1045.75ZM1836.75 1063.58C1826.56 1225.35 1776.88 1341.26 1690.27 1407.49C1658.42 1431.69 1624.03 1450.8 1585.82 1464.81C1590.91 1431.69 1593.46 1397.3 1593.46 1361.64C1593.46 1300.5 1584.54 1243.18 1569.26 1190.96C1604.92 1155.29 1624.03 1108.16 1627.85 1049.57C1631.67 984.609 1616.39 931.111 1580.72 890.351C1545.06 849.591 1497.93 827.937 1440.61 824.116C1371.83 820.295 1311.96 845.77 1263.56 901.815C1243.18 924.742 1224.07 954.039 1207.51 987.156C1198.6 1004.99 1180.77 1040.65 1155.29 1095.43C1132.36 1143.83 1111.98 1184.59 1096.7 1216.43L1090.33 1227.9C1025.37 1354 937.48 1435.52 831.759 1472.46C776.987 1491.56 714.574 1499.2 648.339 1495.38C597.389 1492.83 551.534 1483.92 508.226 1469.91C429.254 1444.43 364.292 1398.58 312.069 1336.16C231.822 1238.08 196.157 1111.98 206.347 961.681C211.442 882.709 225.454 811.379 249.655 752.786C272.582 695.467 301.879 648.339 334.996 616.495C368.114 583.377 407.6 556.629 453.455 537.522C463.645 533.701 473.835 528.606 484.025 526.059C477.656 559.176 475.109 593.567 475.109 630.506C475.109 691.646 482.751 748.965 496.763 801.189C449.634 839.401 422.885 897.994 417.79 975.692C413.969 1044.47 429.254 1104.34 466.193 1150.2C504.405 1198.6 559.176 1224.07 629.233 1229.17C715.848 1234.26 789.725 1196.05 847.044 1113.26C861.055 1092.88 875.066 1071.22 886.53 1045.75C892.899 1030.46 912.005 992.251 946.396 922.195C968.05 877.614 987.156 840.675 1004.99 811.379C1012.63 797.367 1020.27 784.63 1027.92 773.166C1073.77 696.741 1132.36 643.244 1202.42 610.126C1268.65 579.556 1348.9 566.819 1438.06 571.914C1455.9 571.914 1475 574.461 1491.56 578.282C1593.46 594.841 1673.71 640.696 1737.4 717.121C1811.27 806.284 1844.39 923.469 1835.47 1064.85L1836.75 1063.58Z" fill="#061C2B"/>
</svg>
